Coordinates
version=1
nRows=4
nColumns=60
inDegrees=yes

Units are S.I. units (second, meters, Newtons, ...)
If the header above contains a line with 'inDegrees', this indicates whether rotational values are in degrees (yes) or radians (no).

endheader
time	pelvis_tilt	pelvis_list	pelvis_rotation	pelvis_tx	pelvis_ty	pelvis_tz	hip_flexion_r	hip_adduction_r	hip_rotation_r	knee_angle_r_beta	knee_angle_r	ankle_angle_r	subtalar_angle_r	mtp_angle_r	hip_flexion_l	hip_adduction_l	hip_rotation_l	knee_angle_l_beta	knee_angle_l	ankle_angle_l	subtalar_angle_l	mtp_angle_l	L5_S1_Flex_Ext	L5_S1_Lat_Bending	L5_S1_axial_rotation	L4_L5_Flex_Ext	L4_L5_Lat_Bending	L4_L5_axial_rotation	L3_L4_Flex_Ext	L3_L4_Lat_Bending	L3_L4_axial_rotation	L2_L3_Flex_Ext	L2_L3_Lat_Bending	L2_L3_axial_rotation	L1_L2_Flex_Ext	L1_L2_Lat_Bending	L1_L2_axial_rotation	L1_T12_Flex_Ext	L1_T12_Lat_Bending	L1_T12_axial_rotation	Abs_r3	Abs_r2	Abs_r1	Abs_t1	Abs_t2	arm_flex_r	arm_add_r	arm_rot_r	elbow_flex_r	pro_sup_r	wrist_flex_r	wrist_dev_r	arm_flex_l	arm_add_l	arm_rot_l	elbow_flex_l	pro_sup_l	wrist_flex_l	wrist_dev_l
     87.05000000	      0.35371734	     13.35206083	     92.01311331	      0.40722934	      0.94287644	      0.29019383	     -2.79366286	     -4.23144066	     -1.55419995	      0.29585915	    -16.95148071	      9.97615380	      0.00000000	      0.00000000	     -2.37576774	     -6.72807795	     -3.28169991	      0.27401456	    -15.69987784	     10.72078487	      0.00000000	      0.00000000	     -7.12292721	      0.09125409	     -0.24266725	    -13.22798813	      0.12136793	     -0.25783395	    -11.70225712	      0.22187518	     -0.25783395	     -8.14079351	      0.22187518	     -0.21233385	     -6.61435021	      0.18608533	     -0.19716714	     -4.07004061	      0.14135258	     -0.18200044	    -50.87835679	      1.03228447	     -1.34964245	      0.00000000	      0.00000000	     16.64463045	    -29.47437641	      7.29471540	     91.03222631	     68.63814180	      3.34877877	     17.59181514	     20.34110410	    -27.33452557	     10.59085345	     85.85815665	     65.86280831	     10.08062735	     16.06409738
     87.06000000	      0.34295868	     13.43472828	     91.95491362	      0.40724937	      0.94306321	      0.28868599	     -3.08420570	     -4.24303254	     -1.53300108	      0.29231877	    -16.74863207	     10.03283773	      0.00000000	      0.00000000	     -2.65084591	     -6.70945268	     -3.32874634	      0.27203998	    -15.58674295	     10.80299762	      0.00000000	      0.00000000	     -7.03431337	      0.08788528	     -0.24092504	    -13.06342336	      0.11688742	     -0.25598286	    -11.55667343	      0.21368427	     -0.25598286	     -8.03951675	      0.21368427	     -0.21080941	     -6.53206339	      0.17921566	     -0.19575160	     -4.01940666	      0.13613430	     -0.18069378	    -50.24539697	      0.99417585	     -1.33995281	      0.00000000	      0.00000000	     16.93750112	    -29.67995229	      7.20901540	     91.46193069	     68.55515691	      3.33798417	     17.68104504	     20.59872625	    -27.43782539	     10.56472388	     86.43218891	     65.81558203	      9.94314021	     16.11585638
     87.07000000	      0.33853027	     13.50519702	     91.89846359	      0.40724628	      0.94324782	      0.28737870	     -3.29332367	     -4.26016951	     -1.56239810	      0.29099306	    -16.67267406	     10.05392550	      0.00000000	      0.00000000	     -2.84692844	     -6.69606637	     -3.38292679	      0.27156924	    -15.55977132	     10.83324951	      0.00000000	      0.00000000	     -6.95098404	      0.08564350	     -0.23726880	    -12.90867246	      0.11390585	     -0.25209810	    -11.41977168	      0.20823360	     -0.25209810	     -7.94427966	      0.20823360	     -0.20761020	     -6.45468378	      0.17464422	     -0.19278090	     -3.97179228	      0.13266178	     -0.17795160	    -49.65018389	      0.96881640	     -1.31961790	      0.00000000	      0.00000000	     17.40639477	    -29.80629455	      7.08981778	     91.70183122	     68.51024295	      3.33616467	     17.71219899	     21.01963658	    -27.42330774	     10.49566630	     86.78954311	     65.79064995	      9.88919180	     16.12981145
     87.08000000	      0.33934798	     13.55165058	     91.82943193	      0.40726195	      0.94337662	      0.28614864	     -3.48545827	     -4.27523226	     -1.59843660	      0.28880572	    -16.54734867	     10.08863518	      0.00000000	      0.00000000	     -3.02385136	     -6.68584964	     -3.45866106	      0.27075420	    -15.51307293	     10.88624061	      0.00000000	      0.00000000	     -6.87100866	      0.08260101	     -0.22904485	    -12.76015018	      0.10985935	     -0.24336015	    -11.28838012	      0.20083611	     -0.24336015	     -7.85287579	      0.20083611	     -0.20041424	     -6.38041864	      0.16843999	     -0.18609894	     -3.92609435	      0.12794897	     -0.17178364	    -49.07892774	      0.93439919	     -1.27387873	      0.00000000	      0.00000000	     17.91037284	    -29.97149596	      7.01846778	     91.90850157	     68.44619130	      3.34042131	     17.76304096	     21.51588788	    -27.42014070	     10.43239867	     87.15611659	     65.75636607	      9.82782692	     16.15787934
